<?xml version="1.0" encoding="UTF-8" standalone="no"?>
<svg
   xmlns:dc="http://purl.org/dc/elements/1.1/"
   xmlns:cc="http://creativecommons.org/ns#"
   xmlns:rdf="http://www.w3.org/1999/02/22-rdf-syntax-ns#"
   xmlns:svg="http://www.w3.org/2000/svg"
   xmlns="http://www.w3.org/2000/svg"
   xmlns:sodipodi="http://sodipodi.sourceforge.net/DTD/sodipodi-0.dtd"
   xmlns:inkscape="http://www.inkscape.org/namespaces/inkscape"
   version="1.1"
   width="852"
   height="372"
   viewBox="242.69 90.61 852 372"
   xml:space="preserve"
   id="svg24"
   sodipodi:docname="built.svg"><metadata
   id="metadata28"><rdf:RDF><cc:Work
       rdf:about=""><dc:format>image/svg+xml</dc:format><dc:type
         rdf:resource="http://purl.org/dc/dcmitype/StillImage" /></cc:Work></rdf:RDF></metadata><sodipodi:namedview
   pagecolor="#ffffff"
   bordercolor="#666666"
   borderopacity="1"
   objecttolerance="10"
   gridtolerance="10"
   guidetolerance="10"
   inkscape:pageopacity="0"
   inkscape:pageshadow="2"
   inkscape:window-width="640"
   inkscape:window-height="480"
   id="namedview26"
   fit-margin-top="46"
   fit-margin-left="46"
   fit-margin-right="46"
   fit-margin-bottom="46" />
<desc
   id="desc2">Created with Fabric.js 5.3.0</desc>
<defs
   id="defs4">
</defs><rect
   width="100%"
   height="100%"
   fill="#ffffff"
   id="rect6"
   x="46"
   y="46" />
<g
   transform="matrix(1.3,0,0,1.3,792.05,277.04)"
   id="base_text">
		<g
   aria-label="cyka Al"
   id="text10"
   style="font-style:normal;font-weight:normal;font-size:120px;font-family:f1;white-space:pre;opacity:1;fill:#3a5cbb;fill-rule:nonzero;stroke:none;stroke-width:1;stroke-linecap:butt;stroke-linejoin:miter;stroke-miterlimit:4;stroke-dasharray:none;stroke-dashoffset:0"><path
     d="m -181.14,6.8600008 q 0,10.2000002 3.84,15.8400002 3.84,5.64 11.04,5.64 7.32,0 14.4,-5.16 l 5.16,9.24 q -8.52,6.96 -21.36,6.96 -12.84,0 -20.28,-8.04 -7.32,-8.16 -7.32,-24.0000002 0,-15.84 8.4,-23.7599998 8.52,-8.04 19.08,-8.04 10.68,0 19.8,4.92 v 15.5999998 l -11.04,0.84 v -5.76 q 0,-3.2399998 -2.4,-3.9599998 -2.28,-0.84 -4.8,-0.84 -14.52,0 -14.52,20.5199998 z"
     id="path30" /><path
     d="m -94.980143,35.420001 v -9.12 q -6.599997,9.36 -19.439997,9.36 -18.6,0 -18.6,-20.76 V -9.2199992 q 0,-3.2399998 -3,-3.3599998 l -3.84,-0.24 v -9.84 h 21.12 v 34.44 q 0,6.36 1.8,9.6 1.8,3.24 7.44,3.24 5.64,0 9,-3.48 3.479997,-3.48 3.479997,-8.4 V -8.9799992 q 0,-2.0399998 -0.72,-2.7599998 -0.6,-0.84 -2.279997,-0.84 l -3.84,-0.24 v -9.84 h 21.119997 v 58.08 q 0,14.52 -7.08,21.24 -6.96,6.72 -21.239997,6.72 -14.16,0 -22.08,-3.96 v -16.68 l 11.4,-0.96 v 5.76 q 0,3.24 3,4.32 3,1.2 8.28,1.2 15.479997,0 15.479997,-17.64 z"
     id="path32" /><path
     d="m -62.940149,24.260001 v -58.44 q 0,-1.92 -0.72,-2.64 -0.6,-0.72 -2.28,-0.84 l -4.2,-0.24 v -9.96 h 21.36 V 4.1000008 q 6.6,-0.6 11.52,-4.08000004 4.92,-3.47999996 6.72,-9.11999996 0.36,-1.1999998 0.36,-1.9199998 0,-2.04 -2.28,-2.04 l -4.56,-0.24 v -9.36 h 24.84 v 9.72 l -5.76,0.24 q -1.56,12.23999976 -10.56,19.3199998 l 11.76,21.1200002 7.3200001,0.36 v 9.6 H -26.940149 l -13.68,-24.96 q -3.96,1.08 -8.16,1.68 v 13.32 h 0.12 l 6.84,0.36 v 9.6 h -28.56 v -9.12 l 3.96,-0.36 q 1.8,-0.24 2.64,-0.96 0.84,-0.84 0.84,-3 z"
     id="path34" /><path
     d="m 50.219822,-20.259999 v 44.64 q 0,1.92 0.6,2.64 0.72,0.72 2.4,0.84 l 3.84,0.24 v 9.6 h -19.08 v -6.96 l -0.36,-0.12 q -6,8.64 -16.44,8.64 -12.2400002,0 -18.1200002,-7.8 -5.88,-7.8 -5.88,-21.36 0,-16.3200002 7.92,-25.44 7.9200002,-9.12 23.7600002,-9.12 10.2,0 21.36,4.2 z m -13.92,38.88 v -31.08 q -3.36,-1.56 -9.24,-1.56 -8.04,0 -11.64,6.4799998 -3.6,6.48 -3.6,17.16 0,19.4400002 12.48,19.4400002 5.28,0 8.64,-3.12 3.36,-3.24 3.36,-7.32 z"
     id="path36" /><path
     d="m 92.579617,24.260001 19.320003,-55.92 -7.56,-0.72 v -9.72 h 27.48 l 24.48,69.24 h 0.12 l 6.84,0.36 v 10.2 h -30.96 v -9.72 l 4.56,-0.36 q 2.04,-0.24 2.76,-0.96 0.72,-0.72 0.12,-2.64 l -2.52,-7.44 h -28.08 l -3.6,10.56 7.2,0.36 v 10.2 H 85.019617 v -9.72 l 3.96,-0.36 q 2.52,-0.24 3.6,-3.36 z m 30.600003,-52.92 -11.16,34.1999998 h 22.32 l -10.8,-34.1999998 z"
     id="path38" /><path
     d="m 189.29947,-47.859999 v 75.6 l 6.84,0.36 v 9.6 h -28.56 v -9.12 l 3.96,-0.36 q 3.48,-0.36 3.48,-3.84 v -59.16 q 0,-2.64 -3,-2.88 l -4.2,-0.24 v -9.96 z"
     id="path40" /></g>
</g><g
   transform="matrix(0.56,0,0,0.56,391.9,276)"
   id="main_icon">
<g
   id="g21">
		<g
   transform="matrix(0.96,0,0,0.96,5.03,27.69)"
   id="g15">
<path
   style="opacity:1;fill:#3a5cbb;fill-rule:nonzero;stroke:none;stroke-width:1;stroke-linecap:butt;stroke-linejoin:miter;stroke-miterlimit:4;stroke-dasharray:none;stroke-dashoffset:0"
   transform="translate(-196.68,-289.65)"
   d="m 353.72,235.78 h 29 v -42.44 c -8.49,-0.48 -16.93,-0.85 -25.35,-1.51 -1.44,-0.12 -3.68,-1.23 -4,-2.33 -2.27,-7.6 -4.13,-15.32 -6.15,-23.1 l 23.73,-17.22 -22.7,-35.54 -24,16.75 L 305,112.68 c 3.18,-7.94 6,-15.55 9.29,-23 1.52,-3.42 0.59,-5.26 -2.39,-6.79 -9.46,-4.86 -19,-9.65 -28.32,-14.68 -3.46,-1.86 -5.48,-0.81 -7.25,2.23 -3.69,6.32 -7.37,12.65 -11.3,18.82 -0.75,1.16 -2.81,2.37 -4,2.17 -6.7,-1.07 -13.34,-2.57 -20.37,-4 -0.74,-9.55 -1.48,-19.28 -2.28,-29.73 L 197,62 v 28.73 c -7.59,3.58 -14.46,6.89 -21.43,10 -1.24838,0.56171 -2.67246,0.58701 -3.94,0.07 -8,-4.69 -16.81,-6.13 -25.93,-5.87 -11.08,0.31 -21.84,-0.11 -29.13,-11.57 -2.74,11.12 0.81,18.39 10.59,23.25 -5.74,1.51 -10.52,2.86 -15.35,4 -4.19,1 -8.4,2.2 -12.66,2.56 -6.57,0.55 -10.94,-3.56 -10.8,-10.13 0.06,-3.06 1.37,-6.09 2.1,-9.1 -13,1.5 -23.91,14 -26.25,29.84 -1.42,9.68 -0.81,18.94 4.36,27.49 6.73,11.12 17.13,16.74 30.2,18.91 -3.69,8.64 -6.6,17 -10.75,24.73 -3.87,7.18 -4.63,13.07 2.27,18.63 2.63,2.13 2.08,4.38 0.33,7.34 -6.83,11.61 -13.34,23.41 -19.69,35.29 -3.19,6 -2.26,7.72 4.06,9.87 2.83,1 5.66,2 8.54,2.78 3.51,1 5.41,3 4.83,6.85 -0.24,1.64 0.23,3.46 -0.31,5 -2.39,6.69 -0.3,11 6.38,13.29 0.18,0.06 0.23,0.5 0.34,0.77 -5.78,5 -5.78,5 -1.33,11.74 2.34,3.53 3.25,7.17 1.44,11.31 -1.164983,2.56309 -2.046867,5.24563 -2.63,8 -1.91,10 3,17.25 13,18.66 4.61054,0.54836 9.27646,0.42034 13.85,-0.38 8,-1.25 15.82,-3.15 24,-4.84 0,7.92 -0.31,15.24 0.15,22.51 0.18615,3.02815 1.35932,5.9119 3.34,8.21 10.45,10.72 21.28,21.07 31.94,31.6 2.07,2 3.95,4.25 6.14,6.62 l -38.88,33.05 c -5.63,-22.93 -11,-44.76 -16.56,-67.37 C 94.31,405.12 53.61,425.9 10.63,443.23 91.54,536.41 259,558.49 365,443.17 324.09,424.81 284,405.39 250.59,374.3 c -5.44,22.68 -10.61,44.21 -16,66.55 l -40.22,-33.51 c 1.35447,-0.85393 2.65372,-1.79246 3.89,-2.81 11.84,-11.44 23.74,-22.83 35.37,-34.48 1.76623,-2.03492 2.85649,-4.56839 3.12,-7.25 0.94,-8.05 1.37,-16.17 2,-24.12 l 22.93,-3.94 14.2,25.94 c 12.38,-5.56 24,-10.89 35.76,-16 2.94,-1.28 3,-2.89 1.92,-5.43 -2.92,-7.06 -5.81,-14.14 -8.45,-21.3 -0.49,-1.33 -0.37,-3.76 0.5,-4.56 5.71,-5.3 11.71,-10.28 17.69,-15.44 l 23,15.51 23.61,-34.13 c -7.34,-5.39 -14.33,-10.42 -21.16,-15.66 -1.19,-0.92 -2.63,-3.05 -2.32,-4.17 2.08,-7.65 4.57,-15.18 7.29,-23.72 z M 208.23,431.24 c 7.52,6.66 14.89,13 22,19.7 0.87,0.81 0.63,3.46 0.1,5 -4.78,13.64 -9.74,27.23 -14.66,40.83 -1,2.79 -2.08,5.56 -3.58,9.54 -5.33,-21.45 -10.05,-41.64 -16.25,-61.87 z m -27,21.21 C 177,469.5 173,486.6 168.85,503.67 c -0.35775,0.95687 -0.78558,1.88606 -1.28,2.78 -6.44,-18 -12.57,-35.11 -18.59,-52.22 -0.35,-1 -0.32,-2.85 0.32,-3.44 7.24,-6.53 14.62,-12.9 20.52,-18.05 l 14.91,11.85 c -1.53,3.35 -2.94,5.5 -3.53,7.86 z m 98,-175.9 C 251.12,298.81 220.27,300 188,287.23 c -13.56,-5.37 -25.77,-12.68 -33.35,-25.67 -3,-5.18 -5,-11 -7.78,-17.31 6.59,0 11.56,-0.15 16.5,0.12 1,0.06 2.3,1.57 2.75,2.7 6.15,15.43 16.71,22.72 33.29,22.76 9,0 18,0.18 27,-0.06 21.08,-0.55 35.59,-19.16 30.68,-39.27 -2.55,-10.44 -9.9,-16.51 -19,-20.28 3.51,-4.51 7.68,-8.5 10.2,-13.35 8.12,-15.58 -3.25,-36 -20.86,-36.92 -16.1,-0.84 -32.27,-0.73 -48.4,-0.31 -15.15,0.4 -25,-7 -32.92,-20.38 9.58,1.07 18.69,-2.75 27.12,3.14 1.19,0.83 3.16,0.72 4.78,0.75 5.45,0.08 10.91,0 17.1,0 -0.95,-2 -1.48,-3.12 -2.13,-4.5 1.09,-0.45 2.1,-0.92 3.14,-1.29 26.88,-9.62 52.66,-7.76 76.87,7.9 46.01,29.87 49.33,97.1 6.2,131.29 z m -41.31,-51 c 4.91,7.15 4.86,14.69 1.24,22.19 -3.33,6.89 -9.23,9.53 -16.79,9.1 -4.29,-0.25 -8.61,-0.05 -13.6,-0.05 V 218 c 10.49,0.17 21.56,-3.39 29.11,7.59 z m -28.68,-23 V 172.5 c 8.32,-0.31 16.84,-2.39 22.41,6.08 3.55,5.38 3.37,11 0.2,16.51 -5.16,8.91 -13.68,8.09 -22.65,7.52 z"
   stroke-linecap="round"
   id="path13" />
</g>
		<g
   transform="matrix(0.96,0,0,0.96,-1.18,-201.63)"
   id="g19">
<path
   style="opacity:1;fill:#3a5cbb;fill-rule:nonzero;stroke:none;stroke-width:1;stroke-linecap:butt;stroke-linejoin:miter;stroke-miterlimit:4;stroke-dasharray:none;stroke-dashoffset:0"
   transform="translate(-190.2,-50.78)"
   d="M 52.91,61.33 C 124,10.52 200.51,3.24 280.78,36.39 c 32.72,13.52 60.58,34.55 83.84,61.43 3.77,4.37 8.44,4.92 12.13,1.61 4.7,-4.22 4.86,-7.25 0.54,-12.36 -1.5,-1.77 -3.13,-3.44 -4.75,-5.12 C 322,29.23 260.65,0.94 182.35,0 175.69,0.53 164.16,0.83 152.83,2.47 106.86,9.12 66.47,28.41 31,58.07 21.35,66.16 12.74,75.52 3.74,84.39 1.06,87 -1,90.17 0.5,94.22 c 2.39,6.49 8.21,7.46 13.37,2.64 C 26.75,84.85 38.69,71.49 52.91,61.33 Z"
   stroke-linecap="round"
   id="path17" />
</g>
</g>
</g></svg>
